<svg width="32" height="29" viewBox="0 0 32 29" fill="none" xmlns="http://www.w3.org/2000/svg">
<path d="M26.2001 28.9999C25.5523 28.9738 24.9407 28.6947 24.4964 28.2226C24.0521 27.7506 23.8106 27.1231 23.8237 26.475C23.8368 25.8268 24.1035 25.2096 24.5665 24.7559C25.0294 24.3021 25.6519 24.048 26.3002 24.048C26.9484 24.048 27.5708 24.3021 28.0337 24.7559C28.4967 25.2096 28.7634 25.8268 28.7765 26.475C28.7896 27.1231 28.5481 27.7506 28.1038 28.2226C27.6595 28.6947 27.0479 28.9738 26.4001 28.9999H26.2001ZM6.75271 26.32C6.75271 25.7899 6.90988 25.2717 7.20435 24.831C7.49883 24.3903 7.91738 24.0468 8.40707 23.844C8.89676 23.6411 9.43563 23.588 9.95548 23.6915C10.4753 23.7949 10.9528 24.0501 11.3276 24.4249C11.7024 24.7997 11.9577 25.2772 12.0611 25.7971C12.1645 26.317 12.1114 26.8558 11.9085 27.3455C11.7057 27.8352 11.3622 28.2538 10.9215 28.5483C10.4808 28.8428 9.96271 28.9999 9.43267 28.9999C9.08057 29.0002 8.73184 28.9311 8.40646 28.7965C8.08109 28.662 7.78544 28.4646 7.53637 28.2157C7.28731 27.9668 7.08978 27.6713 6.95497 27.346C6.82017 27.0207 6.75075 26.6721 6.75075 26.32H6.75271ZM10.5526 20.686C10.2932 20.6867 10.0406 20.6023 9.83378 20.4457C9.62695 20.2891 9.47727 20.0689 9.40765 19.819L4.5748 2.364H1.18197C0.868492 2.364 0.567841 2.23947 0.34618 2.0178C0.124519 1.79613 0 1.49549 0 1.182C0 0.868517 0.124519 0.567872 0.34618 0.346204C0.567841 0.124537 0.868492 5.81266e-06 1.18197 5.81266e-06H5.46283C5.72231 -0.000807358 5.97484 0.0837199 6.18156 0.240568C6.38827 0.397416 6.53763 0.617882 6.60672 0.868004L11.4396 18.323H24.6171L29 8.27499H14.4005C14.2424 8.27959 14.0849 8.25241 13.9374 8.19505C13.7899 8.13769 13.6554 8.05133 13.5419 7.94107C13.4284 7.83081 13.3382 7.69889 13.2765 7.55314C13.2149 7.40738 13.1832 7.25074 13.1832 7.09249C13.1832 6.93424 13.2149 6.7776 13.2765 6.63184C13.3382 6.48609 13.4284 6.35417 13.5419 6.24391C13.6554 6.13365 13.7899 6.04729 13.9374 5.98993C14.0849 5.93258 14.2424 5.90539 14.4005 5.90999H30.813C31.0086 5.90995 31.2012 5.95865 31.3734 6.05171C31.5455 6.14477 31.6917 6.27924 31.7989 6.44299C31.9068 6.60727 31.9723 6.79568 31.9898 6.99144C32.0072 7.18719 31.9761 7.38422 31.899 7.56499L26.4941 19.977C26.4017 20.1876 26.2501 20.3668 26.0576 20.4927C25.8651 20.6186 25.6402 20.6857 25.4102 20.686H10.5526Z" fill="#E8E8E8"/>
</svg>
