<svg width="27" height="28" viewBox="0 0 27 28" fill="none" xmlns="http://www.w3.org/2000/svg">
<path d="M18.0619 17.6259C19.6736 15.8658 20.6305 13.6048 20.7721 11.2225C20.9136 8.84018 20.2311 6.48173 18.8392 4.54318C17.4473 2.60463 15.4307 1.20404 13.1281 0.576619C10.8255 -0.0508008 8.37719 0.13316 6.19422 1.09761C4.01125 2.06205 2.22662 3.74824 1.14001 5.87302C0.0534014 7.9978 -0.268997 10.4318 0.226953 12.7661C0.722903 15.1005 2.007 17.1932 3.8636 18.6927C5.72019 20.1922 8.03622 21.0072 10.4227 21.0009C12.6752 21.004 14.8667 20.27 16.6629 18.9109L24.411 26.7179C24.4965 26.807 24.5989 26.878 24.7122 26.927C24.8256 26.9759 24.9476 27.0017 25.071 27.0029C25.1947 27.0033 25.3171 26.9782 25.4307 26.9292C25.5443 26.8801 25.6465 26.8082 25.731 26.7179C25.9049 26.537 26.0021 26.2958 26.0021 26.0449C26.0021 25.794 25.9049 25.5528 25.731 25.3719L18.0619 17.6259ZM1.88861 10.5009C1.90144 8.81563 2.41293 7.17187 3.3586 5.77685C4.30426 4.38183 5.64177 3.29801 7.20251 2.662C8.76325 2.02599 10.4774 1.86627 12.1287 2.20298C13.7801 2.53969 15.2948 3.35775 16.482 4.55404C17.6691 5.75033 18.4755 7.27129 18.7995 8.92518C19.1234 10.5791 18.9505 12.2919 18.3025 13.8476C17.6545 15.4034 16.5604 16.7325 15.1581 17.6674C13.7558 18.6022 12.1081 19.1011 10.4227 19.1009C8.15125 19.0901 5.97687 18.1784 4.37686 16.566C2.77686 14.9537 1.88196 12.7724 1.88861 10.5009V10.5009Z" fill="#E8E8E8"/>
</svg>
